<svg aria-hidden="true" style="position: absolute; width: 0; height: 0; overflow: hidden;" version="1.1" xmlns="http://www.w3.org/2000/svg" xmlns:xlink="http://www.w3.org/1999/xlink">
  <defs>
    <symbol id="icon-arrow-left" viewBox="0 0 32 32">
      <path fill="#022c1f" style="fill: var(--color1, #022c1f)" d="M32 16c0 8.837-7.163 16-16 16s-16-7.163-16-16c0-8.837 7.163-16 16-16s16 7.163 16 16z"></path>
      <path fill="#fff" style="fill: var(--color2, #fff)" d="M7.758 16l12.364-7.138v14.276l-12.364-7.138z"></path>
    </symbol>
    <symbol id="icon-arrow-rigth" viewBox="0 0 32 32">
      <path fill="#022c1f" style="fill: var(--color1, #022c1f)" d="M0 16c0 8.837 7.163 16 16 16s16-7.163 16-16c0-8.837-7.163-16-16-16s-16 7.163-16 16z"></path>
      <path fill="#fff" style="fill: var(--color2, #fff)" d="M24.242 16l-12.364-7.138v14.276l12.364-7.138z"></path>
    </symbol>
    <symbol id="icon-location" viewBox="0 0 27 32">
      <path fill="#d9d9d9" style="fill: var(--color3, #d9d9d9)" d="M13.538 0c-3.589 0.004-7.030 1.3-9.568 3.601-2.539 2.303-3.967 5.425-3.97 8.682-0.004 2.661 0.954 5.25 2.727 7.37 0 0 0.369 0.441 0.43 0.505l10.382 11.108 10.386-11.114c0.054-0.059 0.425-0.498 0.425-0.498l0.001-0.004c1.772-2.118 2.73-4.706 2.726-7.366-0.004-3.257-1.431-6.379-3.97-8.682-2.538-2.302-5.979-3.598-9.568-3.601zM13.538 16.75c-0.004 0-0.009 0-0.014 0-1.005 0-1.944-0.28-2.744-0.766l0.023 0.013c-0.791-0.476-1.414-1.159-1.802-1.976l-0.012-0.028c-0.236-0.501-0.374-1.088-0.374-1.707 0-0.31 0.034-0.611 0.1-0.901l-0.005 0.027c0.212-0.915 0.689-1.697 1.344-2.283l0.004-0.004c0.684-0.614 1.541-1.047 2.49-1.218l0.031-0.005c0.289-0.055 0.621-0.086 0.96-0.086 0.676 0 1.324 0.125 1.92 0.352l-0.037-0.012c0.901 0.338 1.669 0.911 2.21 1.646 0.542 0.734 0.83 1.598 0.83 2.481-0.001 1.184-0.521 2.319-1.444 3.157-0.923 0.837-2.175 1.308-3.479 1.31z"></path>
    </symbol>
    <symbol id="icon-location-hero" viewBox="0 0 28 32">
      <path fill="#fff" style="fill: var(--color2, #fff)" d="M13.804 32c0.939 0 4.608-2.629 7.532-5.89 3.898-4.344 6.272-9.193 6.272-13.802 0-7.293-6.111-12.307-13.804-12.307s-13.804 5.014-13.804 12.307c0 4.628 2.374 9.477 6.272 13.816 2.921 3.255 6.591 5.876 7.532 5.876zM13.804 15.261c0.001 0 0.002 0 0.004 0 0.689 0 1.314-0.275 1.771-0.721l-0.001 0c0.453-0.442 0.734-1.058 0.735-1.74v-0c0-0.653-0.264-1.279-0.735-1.741-0.457-0.446-1.082-0.722-1.771-0.722-0.001 0-0.002 0-0.003 0h0c-0.001 0-0.002 0-0.003 0-0.69 0-1.315 0.275-1.772 0.722l0-0c-0.453 0.442-0.734 1.058-0.735 1.74v0c0 0.653 0.264 1.279 0.735 1.741 0.457 0.446 1.082 0.722 1.771 0.722 0.001 0 0.002 0 0.003 0h-0zM13.804 20.676c-2.13 0-4.173-0.829-5.679-2.306-1.449-1.415-2.349-3.387-2.352-5.569v-0.001c0-2.089 0.846-4.093 2.352-5.57 1.461-1.427 3.461-2.307 5.666-2.307 0.005 0 0.009 0 0.013 0h-0.001c2.13 0 4.173 0.83 5.679 2.307 1.449 1.415 2.349 3.387 2.352 5.569v0.001c0 2.089-0.846 4.093-2.352 5.57-1.461 1.427-3.461 2.307-5.666 2.307-0.005 0-0.009 0-0.013 0h0.001z"></path>
    </symbol>
    <symbol id="icon-mail" viewBox="0 0 43 32">
      <path fill="#d9d9d9" style="fill: var(--color3, #d9d9d9)" d="M41.538 0h-40c-0.85 0-1.538 0.635-1.538 1.422v28.423c0 0.785 0.688 1.42 1.538 1.42h40c0.85 0 1.538-0.635 1.538-1.42v-28.423c0-0.786-0.688-1.422-1.538-1.422zM37.654 4.837l-15.169 10.902c-0.177 0.127-0.398 0.203-0.637 0.203s-0.46-0.076-0.64-0.205l0.003 0.002-15.173-10.902c-0.055-0.039-0.097-0.095-0.119-0.159l-0.001-0.002c-0.009-0.028-0.015-0.059-0.015-0.093 0-0.037 0.007-0.072 0.019-0.105l-0.001 0.002c0.025-0.065 0.069-0.119 0.124-0.156l0.001-0.001c0.057-0.038 0.126-0.060 0.201-0.060 0 0 0 0 0.001 0h31.193c0.073 0 0.143 0.021 0.202 0.060 0.057 0.037 0.1 0.091 0.125 0.154l0.001 0.002c0.012 0.031 0.019 0.066 0.019 0.103 0 0.033-0.005 0.065-0.016 0.095l0.001-0.002c-0.023 0.066-0.064 0.121-0.118 0.159l-0.001 0.001z"></path>
    </symbol>
    <symbol id="icon-tel" viewBox="0 0 31 32">
      <path fill="#d9d9d9" style="fill: var(--color3, #d9d9d9)" d="M29.892 22.092l-6.731-2.929c-0.167-0.075-0.362-0.118-0.568-0.118-0.45 0-0.852 0.209-1.112 0.536l-0.002 0.003-2.981 3.7c-4.712-2.304-8.416-6.062-10.591-10.683l-0.058-0.137 3.643-3.029c0.325-0.274 0.53-0.682 0.53-1.137 0-0.207-0.042-0.404-0.119-0.583l0.004 0.010-2.887-6.838c-0.137-0.316-0.372-0.568-0.666-0.722l-0.008-0.004c-0.191-0.1-0.417-0.159-0.657-0.159-0.114 0-0.224 0.013-0.33 0.038l0.010-0.002-6.25 1.467c-0.328 0.079-0.605 0.263-0.801 0.513l-0.002 0.003c-0.203 0.257-0.314 0.58-0.314 0.91 0 15.664 12.495 28.335 27.886 28.335 0.326 0 0.642-0.111 0.898-0.318 0.255-0.207 0.434-0.495 0.507-0.818l1.442-6.351c0.074-0.336 0.031-0.689-0.123-0.997s-0.404-0.547-0.71-0.685l-0.009-0.004z"></path>
    </symbol>
    <symbol id="icon-facebook" viewBox="0 0 32 32">
      <path d="M21.328 5.312h2.923v-5.088c-1.232-0.143-2.66-0.224-4.108-0.224-0.052 0-0.104 0-0.156 0l0.008-0c-4.213 0-7.099 2.65-7.099 7.52v4.48h-4.646v5.688h4.646v14.312h5.699v-14.31h4.459l0.707-5.688h-5.168v-3.922c0-1.643 0.443-2.768 2.734-2.768z"></path>
    </symbol>
    <symbol id="icon-instagram" viewBox="0 0 32 32">
      <path d="M31.968 9.408c-0.074-1.701-0.349-2.869-0.742-3.882-0.424-1.111-1.054-2.059-1.85-2.837l-0.001-0.001c-0.78-0.792-1.724-1.419-2.778-1.827l-0.054-0.018c-1.019-0.394-2.181-0.667-3.882-0.742-1.712-0.082-2.256-0.101-6.602-0.101-4.344 0-4.888 0.019-6.595 0.094-1.699 0.074-2.869 0.349-3.88 0.742-1.112 0.424-2.060 1.054-2.839 1.85l-0.001 0.001c-0.791 0.78-1.418 1.724-1.825 2.778l-0.018 0.054c-0.395 1.019-0.669 2.181-0.744 3.882-0.082 1.712-0.101 2.256-0.101 6.602 0 4.344 0.019 4.888 0.094 6.595 0.075 1.701 0.35 2.869 0.744 3.882 0.426 1.11 1.055 2.057 1.849 2.837l0.001 0.001c0.8 0.813 1.77 1.443 2.832 1.843 1.019 0.395 2.182 0.67 3.882 0.744 1.707 0.075 2.251 0.094 6.595 0.094 4.346 0 4.89-0.019 6.595-0.094 1.701-0.074 2.869-0.349 3.882-0.742 2.157-0.85 3.833-2.526 4.664-4.628l0.019-0.055c0.394-1.019 0.669-2.182 0.744-3.882 0.075-1.707 0.093-2.251 0.093-6.595s-0.006-4.888-0.080-6.595zM29.088 22.474c-0.070 1.563-0.333 2.406-0.55 2.97-0.552 1.399-1.64 2.486-3.004 3.024l-0.036 0.012c-0.56 0.219-1.411 0.482-2.968 0.55-1.688 0.075-2.194 0.094-6.464 0.094-4.269 0-4.782-0.019-6.464-0.094-1.563-0.069-2.406-0.331-2.97-0.55-0.721-0.269-1.334-0.676-1.836-1.192l-0.001-0.001c-0.517-0.503-0.924-1.117-1.184-1.803l-0.011-0.034c-0.218-0.563-0.48-1.413-0.549-2.97-0.075-1.688-0.094-2.195-0.094-6.464 0-4.27 0.019-4.784 0.094-6.464 0.069-1.563 0.331-2.406 0.549-2.97 0.269-0.722 0.678-1.337 1.198-1.837l0.002-0.002c0.504-0.517 1.119-0.923 1.806-1.182l0.034-0.011c0.56-0.219 1.411-0.48 2.968-0.55 1.688-0.074 2.195-0.093 6.464-0.093 4.275 0 4.782 0.019 6.464 0.093 1.563 0.069 2.406 0.331 2.97 0.55 0.693 0.256 1.325 0.662 1.837 1.194 0.531 0.52 0.938 1.144 1.195 1.84 0.218 0.56 0.48 1.411 0.549 2.968 0.075 1.688 0.094 2.194 0.094 6.464 0 4.269-0.019 4.768-0.094 6.458z"></path>
      <path d="M16.059 7.782c-4.539 0.002-8.218 3.682-8.219 8.221v0c0.091 4.471 3.737 8.060 8.221 8.060s8.13-3.589 8.221-8.052l0-0.009c-0.001-4.54-3.681-8.22-8.221-8.221h-0zM16.059 21.334c-2.945-0-5.332-2.388-5.332-5.333s2.388-5.333 5.333-5.333c0 0 0.001 0 0.001 0h-0c2.946 0 5.334 2.388 5.334 5.334s-2.388 5.334-5.334 5.334v0zM26.525 7.458c0 1.060-0.86 1.92-1.92 1.92s-1.92-0.86-1.92-1.92v0c0-1.060 0.86-1.92 1.92-1.92s1.92 0.86 1.92 1.92v0z"></path>
    </symbol>
    <symbol id="icon-twitter" viewBox="0 0 32 32">
      <path d="M32 6.078c-1.1 0.493-2.376 0.857-3.713 1.028l-0.068 0.007c1.36-0.817 2.382-2.078 2.873-3.579l0.013-0.046c-1.197 0.722-2.591 1.273-4.076 1.573l-0.084 0.014c-1.2-1.279-2.9-2.076-4.787-2.076-3.622 0-6.558 2.936-6.558 6.558 0 0.001 0 0.003 0 0.004v-0c0 0.52 0.043 1.021 0.152 1.496-5.454-0.266-10.28-2.88-13.522-6.861-0.564 0.949-0.899 2.092-0.902 3.313v0.001c0 2.272 1.171 4.286 2.914 5.451-1.091-0.030-2.107-0.325-2.994-0.823l0.033 0.017v0.072c0.003 3.165 2.236 5.807 5.213 6.44l0.043 0.008c-0.499 0.136-1.071 0.215-1.662 0.215-0.020 0-0.041-0-0.061-0l0.003 0c-0.419 0-0.843-0.024-1.242-0.112 0.85 2.598 3.261 4.509 6.13 4.57-2.215 1.746-5.045 2.8-8.122 2.8-0.004 0-0.008 0-0.013 0h0.001c-0.018 0-0.040 0-0.062 0-0.531 0-1.055-0.034-1.569-0.099l0.061 0.006c2.826 1.846 6.287 2.944 10.004 2.944 0.021 0 0.042-0 0.063-0h-0.003c12.072 0 18.672-10 18.672-18.669 0-0.288-0.010-0.57-0.024-0.848 1.299-0.936 2.39-2.064 3.258-3.355l0.030-0.047z"></path>
    </symbol>
  </defs>
</svg>