<svg aria-hidden="true" style="position: absolute; width: 0; height: 0; overflow: hidden;" version="1.1" xmlns="http://www.w3.org/2000/svg" xmlns:xlink="http://www.w3.org/1999/xlink">
    <defs>
        <symbol id="icon-arrow-left" viewBox="0 0 32 32">
            <path fill="#022c1f" style="fill: var(--color1, #022c1f)" d="M32 16c0 8.837-7.163 16-16 16s-16-7.163-16-16c0-8.837 7.163-16 16-16s16 7.163 16 16z"></path>
            <path fill="#fff" style="fill: var(--color2, #fff)" d="M7.758 16l12.364-7.138v14.276l-12.364-7.138z"></path>
        </symbol>
        <symbol id="icon-arrow-rigth" viewBox="0 0 32 32">
            <path fill="#022c1f" style="fill: var(--color1, #022c1f)" d="M0 16c0 8.837 7.163 16 16 16s16-7.163 16-16c0-8.837-7.163-16-16-16s-16 7.163-16 16z"></path>
            <path fill="#fff" style="fill: var(--color2, #fff)" d="M24.242 16l-12.364-7.138v14.276l12.364-7.138z"></path>
        </symbol>
        <symbol id="icon-location" viewBox="0 0 27 32">
            <path fill="#d9d9d9" style="fill: var(--color3, #d9d9d9)" d="M13.538 0c-3.589 0.004-7.030 1.3-9.568 3.601-2.539 2.303-3.967 5.425-3.97 8.682-0.004 2.661 0.954 5.25 2.727 7.37 0 0 0.369 0.441 0.43 0.505l10.382 11.108 10.386-11.114c0.054-0.059 0.425-0.498 0.425-0.498l0.001-0.004c1.772-2.118 2.73-4.706 2.726-7.366-0.004-3.257-1.431-6.379-3.97-8.682-2.538-2.302-5.979-3.598-9.568-3.601zM13.538 16.75c-0.004 0-0.009 0-0.014 0-1.005 0-1.944-0.28-2.744-0.766l0.023 0.013c-0.791-0.476-1.414-1.159-1.802-1.976l-0.012-0.028c-0.236-0.501-0.374-1.088-0.374-1.707 0-0.31 0.034-0.611 0.1-0.901l-0.005 0.027c0.212-0.915 0.689-1.697 1.344-2.283l0.004-0.004c0.684-0.614 1.541-1.047 2.49-1.218l0.031-0.005c0.289-0.055 0.621-0.086 0.96-0.086 0.676 0 1.324 0.125 1.92 0.352l-0.037-0.012c0.901 0.338 1.669 0.911 2.21 1.646 0.542 0.734 0.83 1.598 0.83 2.481-0.001 1.184-0.521 2.319-1.444 3.157-0.923 0.837-2.175 1.308-3.479 1.31z"></path>
        </symbol>
        <symbol id="icon-location-hero" viewBox="0 0 28 32">
            <path fill="#fff" style="fill: var(--color2, #fff)" d="M13.804 32c0.939 0 4.608-2.629 7.532-5.89 3.898-4.344 6.272-9.193 6.272-13.802 0-7.293-6.111-12.307-13.804-12.307s-13.804 5.014-13.804 12.307c0 4.628 2.374 9.477 6.272 13.816 2.921 3.255 6.591 5.876 7.532 5.876zM13.804 15.261c0.001 0 0.002 0 0.004 0 0.689 0 1.314-0.275 1.771-0.721l-0.001 0c0.453-0.442 0.734-1.058 0.735-1.74v-0c0-0.653-0.264-1.279-0.735-1.741-0.457-0.446-1.082-0.722-1.771-0.722-0.001 0-0.002 0-0.003 0h0c-0.001 0-0.002 0-0.003 0-0.69 0-1.315 0.275-1.772 0.722l0-0c-0.453 0.442-0.734 1.058-0.735 1.74v0c0 0.653 0.264 1.279 0.735 1.741 0.457 0.446 1.082 0.722 1.771 0.722 0.001 0 0.002 0 0.003 0h-0zM13.804 20.676c-2.13 0-4.173-0.829-5.679-2.306-1.449-1.415-2.349-3.387-2.352-5.569v-0.001c0-2.089 0.846-4.093 2.352-5.57 1.461-1.427 3.461-2.307 5.666-2.307 0.005 0 0.009 0 0.013 0h-0.001c2.13 0 4.173 0.83 5.679 2.307 1.449 1.415 2.349 3.387 2.352 5.569v0.001c0 2.089-0.846 4.093-2.352 5.57-1.461 1.427-3.461 2.307-5.666 2.307-0.005 0-0.009 0-0.013 0h0.001z"></path>
        </symbol>
        <symbol id="icon-mail" viewBox="0 0 43 32">
            <path fill="#d9d9d9" style="fill: var(--color3, #d9d9d9)" d="M41.538 0h-40c-0.85 0-1.538 0.635-1.538 1.422v28.423c0 0.785 0.688 1.42 1.538 1.42h40c0.85 0 1.538-0.635 1.538-1.42v-28.423c0-0.786-0.688-1.422-1.538-1.422zM37.654 4.837l-15.169 10.902c-0.177 0.127-0.398 0.203-0.637 0.203s-0.46-0.076-0.64-0.205l0.003 0.002-15.173-10.902c-0.055-0.039-0.097-0.095-0.119-0.159l-0.001-0.002c-0.009-0.028-0.015-0.059-0.015-0.093 0-0.037 0.007-0.072 0.019-0.105l-0.001 0.002c0.025-0.065 0.069-0.119 0.124-0.156l0.001-0.001c0.057-0.038 0.126-0.060 0.201-0.060 0 0 0 0 0.001 0h31.193c0.073 0 0.143 0.021 0.202 0.060 0.057 0.037 0.1 0.091 0.125 0.154l0.001 0.002c0.012 0.031 0.019 0.066 0.019 0.103 0 0.033-0.005 0.065-0.016 0.095l0.001-0.002c-0.023 0.066-0.064 0.121-0.118 0.159l-0.001 0.001z"></path>
        </symbol>
        <symbol id="icon-tel" viewBox="0 0 31 32">
            <path fill="#d9d9d9" style="fill: var(--color3, #d9d9d9)" d="M29.892 22.092l-6.731-2.929c-0.167-0.075-0.362-0.118-0.568-0.118-0.45 0-0.852 0.209-1.112 0.536l-0.002 0.003-2.981 3.7c-4.712-2.304-8.416-6.062-10.591-10.683l-0.058-0.137 3.643-3.029c0.325-0.274 0.53-0.682 0.53-1.137 0-0.207-0.042-0.404-0.119-0.583l0.004 0.010-2.887-6.838c-0.137-0.316-0.372-0.568-0.666-0.722l-0.008-0.004c-0.191-0.1-0.417-0.159-0.657-0.159-0.114 0-0.224 0.013-0.33 0.038l0.010-0.002-6.25 1.467c-0.328 0.079-0.605 0.263-0.801 0.513l-0.002 0.003c-0.203 0.257-0.314 0.58-0.314 0.91 0 15.664 12.495 28.335 27.886 28.335 0.326 0 0.642-0.111 0.898-0.318 0.255-0.207 0.434-0.495 0.507-0.818l1.442-6.351c0.074-0.336 0.031-0.689-0.123-0.997s-0.404-0.547-0.71-0.685l-0.009-0.004z"></path>
        </symbol>
    </defs>
</svg>