<svg width="44" height="51" fill="none" xmlns="http://www.w3.org/2000/svg"><path d="M22 51c1.496 0 7.344-4.19 12.004-9.388C40.216 34.688 44 26.96 44 19.615 44 7.991 34.26 0 22 0S0 7.991 0 19.615c0 7.376 3.784 15.104 9.996 22.02C14.652 46.823 20.5 51 22 51Zm0-26.677a4.04 4.04 0 0 0 2.828-1.149A3.885 3.885 0 0 0 26 20.4c0-1.04-.421-2.038-1.172-2.774A4.04 4.04 0 0 0 22 16.476a4.04 4.04 0 0 0-2.828 1.15A3.885 3.885 0 0 0 18 20.4c0 1.04.421 2.038 1.172 2.774A4.04 4.04 0 0 0 22 24.324Zm0 8.63c-3.395 0-6.65-1.322-9.051-3.676A12.433 12.433 0 0 1 9.2 20.4c0-3.33 1.349-6.523 3.749-8.877A12.928 12.928 0 0 1 22 7.846c3.395 0 6.65 1.323 9.051 3.677A12.433 12.433 0 0 1 34.8 20.4c0 3.33-1.349 6.523-3.749 8.877A12.928 12.928 0 0 1 22 32.954Z" fill="#fff"/></svg>